<svg xmlns="http://www.w3.org/2000/svg" width="32" height="32">
  <path d="M29.332031 17.96875V24c0 2.210938-1.789062 4-4 4H6.667969c-2.210938 0-4-1.789062-4-4v-6.03125l.734375.371094c7.925781 3.992187 17.273437 3.992187 25.199218-.003906ZM18.667969 2.667969c2.207031 0 4 1.789062 4 4V8h2.664062c2.210938 0 4 1.789062 4 4v2.988281l-1.929687.964844c-6.992188 3.527344-15.226563 3.621094-22.300782.25l-.863281-.425781-1.570312-.789063V12c0-2.210938 1.789062-4 4-4h2.664062V6.667969c0-2.210938 1.792969-4 4-4ZM16 13.332031c-.738281 0-1.332031.597657-1.332031 1.335938-.003907.734375.589843 1.335937 1.324219 1.339843.738281.003907 1.335937-.589843 1.339843-1.328124 0-.75-.597656-1.347657-1.332031-1.347657Zm2.667969-8h-5.335938C12.597656 5.332031 12 5.929688 12 6.667969V8h8V6.667969c0-.738281-.597656-1.335938-1.332031-1.335938Zm0 0" style="stroke:none;fill-rule:nonzero;fill:#000;fill-opacity:1"/>
</svg>
